<?xml version="1.0" encoding="UTF-8"?>
<svg xmlns="http://www.w3.org/2000/svg" xmlns:xlink="http://www.w3.org/1999/xlink" width="30pt" height="30pt" viewBox="0 0 30 30" version="1.1">
<g id="surface954">
<path style=" stroke:none;fill-rule:nonzero;fill:rgb(9.019608%,9.019608%,9.411765%);fill-opacity:1;" d="M 0.914062 3 C 0.757812 3.003906 0.597656 3.050781 0.457031 3.140625 C 0.171875 3.320312 0 3.648438 0 4 L 0 10 C 0 10.351562 0.171875 10.679688 0.457031 10.859375 C 0.601562 10.953125 0.769531 11 0.933594 11 C 1.085938 11 1.242188 10.960938 1.382812 10.878906 L 6.507812 7.878906 C 6.808594 7.703125 6.992188 7.367188 6.992188 7 C 6.992188 6.632812 6.808594 6.296875 6.507812 6.121094 L 1.378906 3.121094 C 1.234375 3.035156 1.074219 2.996094 0.914062 3 Z M 27.054688 4.015625 L 20.578125 5.40625 C 19.65625 5.601562 19 6.417969 19 7.359375 L 19 18.714844 C 19 20.660156 13 19.03125 13 24.480469 C 13 25.480469 13.601562 28 16.46875 28 C 19.988281 28 21 25.324219 21 22.355469 L 21 10.535156 L 27.078125 9.203125 C 27.617188 9.085938 28 8.609375 28 8.058594 L 28 4.78125 C 28 4.285156 27.539062 3.914062 27.054688 4.015625 Z M 8.804688 6 C 8.917969 6.320312 8.992188 6.652344 8.992188 7 C 8.992188 7.347656 8.914062 7.679688 8.804688 8 L 16 8 C 16.550781 8 17 7.550781 17 7 C 17 6.449219 16.550781 6 16 6 Z M 5.132812 11 L 3.046875 12.21875 C 3.148438 12.664062 3.527344 13 4 13 L 16 13 C 16.550781 13 17 12.550781 17 12 C 17 11.449219 16.550781 11 16 11 Z M 4 16 C 3.449219 16 3 16.449219 3 17 C 3 17.550781 3.449219 18 4 18 L 16 18 C 16.550781 18 17 17.550781 17 17 C 17 16.449219 16.550781 16 16 16 Z M 4 21 C 3.449219 21 3 21.449219 3 22 C 3 22.550781 3.449219 23 4 23 L 11.136719 23 C 11.28125 22.214844 11.535156 21.550781 11.871094 21 Z M 4 21 "/>
</g>
</svg>
